<?xml version="1.0" encoding="UTF-8"?><svg id="a" xmlns="http://www.w3.org/2000/svg" viewBox="0 0 415.51 325.71"><defs><style>.b{fill:#2b6db1;}</style></defs><path d="M410.63,164.19c-3.25-9.83-9.09-20.14-17.52-30.93l-14.41-18.85c-2.22-10.34-4.8-20.62-7.76-30.82-2.95-10.19-5.91-19.36-8.87-27.49-2.95-8.13-5.39-14.34-7.31-18.62-4.73-9.76-11.5-17.63-20.29-23.62-8.8-5.98-19.18-9.79-31.15-11.42-4-.59-10.54-1.07-19.63-1.44-9.09-.37-20.17-.63-33.25-.77C237.35,.08,223.13,0,207.75,0s-29.78,.12-42.79,.34c-13.01,.22-24.09,.51-33.26,.88-9.16,.37-15.67,.78-19.51,1.22-11.97,1.33-22.39,5.07-31.26,11.2s-15.6,14.08-20.18,23.84c-2.07,4.28-4.54,10.49-7.43,18.62-2.88,8.13-5.83,17.3-8.86,27.49-3.04,10.2-5.59,20.48-7.65,30.82l-14.42,18.85c-8.42,10.79-14.26,21.1-17.51,30.93C1.63,174.02,0,186.18,0,200.66v30.6c0,10.84,2.95,19.58,8.87,26.19v45.21c0,6.5,2.25,11.97,6.76,16.4,4.51,4.44,10.02,6.66,16.52,6.66h20.84c6.65,0,12.23-2.22,16.74-6.66,4.51-4.43,6.76-9.9,6.76-16.4v-28.99c11.29,.65,23.49,1.22,36.59,1.71,15.67,.6,31.67,1.04,48,1.33,16.33,.3,31.89,.45,46.67,.45s30.34-.15,46.68-.45c16.33-.29,32.33-.73,48-1.33,13.1-.49,25.29-1.06,36.58-1.71v28.99c0,6.5,2.26,11.97,6.77,16.4,4.5,4.44,10.08,6.66,16.74,6.66h20.62c6.65,0,12.23-2.22,16.74-6.66,4.5-4.43,6.76-9.9,6.76-16.4v-45.31c5.91-6.6,8.87-15.3,8.87-26.09v-30.6c0-14.48-1.63-26.64-4.88-36.47Zm-109.2,85.59c-15.15,.51-30.82,.96-47,1.33-16.19,.37-31.75,.55-46.68,.55s-30.71-.15-46.89-.44c-16.19-.3-31.82-.74-46.9-1.33-15.07-.6-28.63-1.26-40.68-2s-21.4-1.48-28.05-2.22c-7.24-1.03-12.3-3.47-15.19-7.31-2.88-3.85-4.32-9.02-4.32-15.52v-22.18c0-11.82,1.18-21.24,3.55-28.27,2.36-7.02,6.8-14.81,13.3-23.39l18.18-23.5c1.48-7.98,3.55-16.85,6.21-26.61,2.66-9.75,5.54-19.07,8.65-27.93,3.1-8.87,5.91-16.12,8.42-21.73,2.66-5.77,6.62-10.42,11.86-13.97,5.25-3.55,11.72-5.77,19.41-6.65,5.61-.59,16.62-1.26,33.03-2,16.41-.74,36.22-1.11,59.42-1.11s43.09,.37,59.65,1.11c16.55,.74,27.34,1.41,32.37,2,7.98,1.03,14.56,3.32,19.73,6.87,5.18,3.55,9.17,8.13,11.97,13.75,2.67,5.61,5.51,12.86,8.54,21.73,3.03,8.86,5.88,18.18,8.54,27.93,2.66,9.76,4.73,18.63,6.21,26.61l17.96,23.5c6.65,8.58,11.16,16.37,13.52,23.39,2.37,7.03,3.55,16.45,3.55,28.27v22.18c0,6.5-1.44,11.71-4.33,15.63-2.88,3.91-7.94,6.32-15.18,7.2-6.66,.74-16,1.48-28.05,2.22-12.05,.74-25.65,1.37-40.8,1.89Z"/><path class="b" d="M152.55,149.22c0,3.99,2.07,5.99,6.21,5.99h42.35l-22.39,60.09c-1.63,4.43-.78,7.54,2.55,9.31s6.39,.81,9.2-2.88l68.29-85.81c1.63-1.63,2.44-3.33,2.44-5.1,0-4.14-2.14-6.21-6.43-6.21h-42.13l22.17-60.09c1.63-4.43,.81-7.5-2.44-9.2-3.25-1.7-6.28-.78-9.09,2.77l-68.51,85.81c-1.48,1.92-2.22,3.7-2.22,5.32Z"/></svg>